<svg xmlns="http://www.w3.org/2000/svg" viewBox="0 0 6.24 6.24"><path fill="#020400" d="M3.241 6.24c.628 0 1.124-.15 1.49-.452.367-.301.55-.738.55-1.309 0-.383-.107-.719-.32-1.007a1.423 1.423 0 00-.88-.553 1.55 1.55 0 00.691-.486c.176-.219.263-.467.263-.744 0-.563-.182-.985-.547-1.267C4.123.141 3.618 0 2.974 0H.959v6.24h2.282zm.123-2.923c.368 0 .64.104.816.312.177.207.265.494.265.858 0 .347-.106.615-.318.805-.212.19-.507.284-.886.284H1.795V3.317h1.569zM1.795.665h1.179c.396 0 .699.084.91.251.21.167.316.419.316.756 0 .308-.098.549-.293.722-.195.173-.448.259-.759.259H1.795V.665z"/></svg>