<svg xmlns="http://www.w3.org/2000/svg" width="86" height="54"><g fill="#FFF"><path d="M75.277 53.023H1.072c-.362 0-.655-.259-.655-.578V9.715c0-.319.293-.578.655-.578h74.205c.362 0 .655.26.655.578v42.73c0 .32-.293.578-.655.578zm-73.55-1.156h72.894V10.293H1.727v41.574z"/><path d="M80.049 48.528h-4.772c-.362 0-.656-.258-.656-.578 0-.319.294-.577.656-.577h4.116V5.795H6.5v3.918c0 .32-.293.578-.655.578-.362 0-.655-.259-.655-.578V5.217c0-.319.293-.578.655-.578H80.05c.362 0 .655.259.655.578V47.95c0 .32-.293.578-.655.578z"/><path d="M84.82 44.033h-4.77c-.362 0-.656-.26-.656-.578 0-.32.294-.578.656-.578h4.116V1.299H11.272v3.918c0 .32-.294.578-.656.578-.362 0-.655-.259-.655-.578V.721c0-.319.293-.578.655-.578h74.205c.362 0 .655.26.655.578v42.734c0 .319-.293.578-.655.578z"/><path d="M65.423 53.023H10.926c-.362 0-.655-.259-.655-.578 0-4.472-4.127-8.11-9.199-8.11-.362 0-.655-.26-.655-.579V18.404c0-.32.293-.578.655-.578 5.072 0 9.199-3.639 9.199-8.11 0-.32.293-.579.655-.579h54.497c.362 0 .655.26.655.578 0 4.472 4.127 8.11 9.199 8.11.362 0 .655.26.655.579v25.352c0 .32-.293.578-.655.578-5.072 0-9.199 3.639-9.199 8.111 0 .32-.293.578-.655.578zM11.56 51.867h53.226c.327-4.65 4.56-8.383 9.834-8.67V18.963c-5.274-.288-9.507-4.02-9.834-8.67H11.561c-.326 4.65-4.56 8.382-9.834 8.67v24.232c5.275.288 9.508 4.02 9.834 8.671z"/><path d="M38.174 45.664c-7.668 0-13.907-6.542-13.907-14.584s6.239-14.584 13.907-14.584c7.669 0 13.907 6.542 13.907 14.584s-6.238 14.584-13.907 14.584zm0-28.012c-6.945 0-12.596 6.024-12.596 13.428 0 7.404 5.65 13.428 12.596 13.428s12.597-6.024 12.597-13.428c0-7.404-5.651-13.428-12.597-13.428z"/><path d="M38.174 38.768c-2.934 0-5.322-1.854-5.322-4.133 0-.32.293-.578.655-.578.362 0 .656.259.656.578 0 1.641 1.8 2.977 4.011 2.977 2.212 0 4.012-1.336 4.012-2.977 0-1.641-1.8-2.977-4.012-2.977-2.934 0-5.322-1.854-5.322-4.133s2.388-4.132 5.322-4.132c2.935 0 5.323 1.853 5.323 4.132 0 .32-.294.578-.656.578-.362 0-.655-.259-.655-.578 0-1.641-1.8-2.977-4.012-2.977-2.212 0-4.011 1.336-4.011 2.977 0 1.642 1.8 2.977 4.011 2.977 2.935 0 5.323 1.854 5.323 4.133s-2.388 4.133-5.323 4.133z"/><path d="M38.174 40.953c-.362 0-.655-.258-.655-.577V38.19c0-.32.293-.578.655-.578.362 0 .656.259.656.578v2.186c0 .319-.294.577-.656.577zm0-16.405c-.362 0-.655-.258-.655-.578v-2.186c0-.319.293-.577.655-.577.362 0 .656.258.656.577v2.186c0 .32-.294.578-.656.578z"/></g></svg>