<svg baseProfile="basic" xmlns="http://www.w3.org/2000/svg" width="48" height="48"><path d="M43.776 5h-39.6C1.824 5 0 6.824 0 9.128v29.328c0 2.256 1.824 4.128 4.176 4.128h39.6c2.352 0 4.224-1.872 4.224-4.128V9.128C48 6.824 46.128 5 43.776 5zM16.704 40.76v-1.776h6.576v1.776h-6.576zm-2.16 0H4.08c-.384 0-.768-.096-1.056-.288-.048 0-.048-.048-.096-.048-.096-.048-.144-.096-.24-.144 0-.048-.048-.048-.096-.096l-.192-.192c0-.048-.048-.048-.096-.096s-.096-.144-.144-.24l-.048-.048c-.096-.192-.192-.384-.24-.624h12.672v1.776zm31.632-20.832h-44.4V11.96h44.4v7.968z" fill="#36883f"/></svg>