<svg xmlns="http://www.w3.org/2000/svg" width="78" height="53"><g fill="#FFF"><path d="M73.242 52.932H11.318c-2.16 0-3.916-1.631-3.916-3.636V11.773c0-2.005 1.757-3.635 3.916-3.635h61.924c2.159 0 3.916 1.63 3.916 3.635v37.523c0 2.005-1.757 3.636-3.916 3.636zM11.318 9.226c-1.513 0-2.743 1.143-2.743 2.547v37.523c0 1.404 1.23 2.547 2.743 2.547h61.924c1.512 0 2.743-1.143 2.743-2.547V11.773c0-1.404-1.23-2.547-2.743-2.547H11.318z"/><path d="M7.988 45.07H4.842C2.685 45.07.93 43.438.93 41.433V3.913C.93 1.907 2.685.276 4.84.276h61.927c2.16 0 3.918 1.631 3.918 3.637v4.772c0 .3-.263.544-.586.544-.324 0-.587-.244-.587-.544V3.913c0-1.405-1.231-2.548-2.745-2.548H4.842c-1.51 0-2.739 1.143-2.739 2.548v37.52c0 1.405 1.229 2.548 2.739 2.548h3.146c.324 0 .587.244.587.544 0 .301-.263.545-.587.545z"/><path d="M76.571 17.343H7.988c-.323 0-.586-.244-.586-.545 0-.3.263-.544.586-.544h68.583c.324 0 .587.244.587.544 0 .301-.263.545-.587.545zm0 6.443H7.988c-.323 0-.586-.244-.586-.544 0-.301.263-.545.586-.545h68.583c.324 0 .587.244.587.545 0 .3-.263.544-.587.544zM67.164 48.2c-2.701 0-4.898-2.039-4.898-4.546s2.197-4.547 4.898-4.547c2.7 0 4.898 2.04 4.898 4.547 0 2.507-2.197 4.547-4.898 4.547zm0-8.005c-2.054 0-3.725 1.552-3.725 3.459s1.67 3.458 3.725 3.458c2.054 0 3.725-1.551 3.725-3.458 0-1.907-1.671-3.459-3.725-3.459z"/><path d="M60.621 48.198c-2.697 0-4.892-2.037-4.892-4.542 0-2.507 2.195-4.547 4.892-4.547 1.436 0 2.792.578 3.72 1.586a.517.517 0 01-.064.767.618.618 0 01-.827-.06c-.706-.765-1.737-1.205-2.829-1.205-2.05 0-3.72 1.552-3.72 3.46 0 1.903 1.67 3.452 3.72 3.452 1.093 0 2.124-.439 2.829-1.205a.617.617 0 01.827-.06.517.517 0 01.064.768c-.928 1.008-2.284 1.586-3.72 1.586zm-11.946.002H36.318c-.324 0-.586-.243-.586-.543 0-.301.262-.545.586-.545h12.357c.324 0 .586.244.586.545 0 .3-.262.544-.586.544zm-16.72 0h-19.19c-.323 0-.586-.243-.586-.543 0-.301.263-.545.587-.545h19.189c.323 0 .586.244.586.545 0 .3-.263.544-.586.544zm-8.361-5.886H12.766c-.324 0-.587-.243-.587-.544 0-.3.263-.544.587-.544h10.828c.324 0 .587.243.587.544 0 .3-.263.544-.587.544z"/></g></svg>