<svg xmlns="http://www.w3.org/2000/svg" width="79" height="53"><g fill="#FFF"><path d="M77.985 52.736H1.131c-.332 0-.6-.248-.6-.553V.917c0-.305.268-.553.6-.553h76.854c.332 0 .6.248.6.553v51.266c0 .305-.268.553-.6.553zM1.731 51.629h75.654V1.471H1.73v50.158z"/><path d="M77.987 29.847h-49.32c-.33 0-.6-.248-.6-.553 0-.306.27-.553.6-.553h49.32c.332 0 .6.247.6.553 0 .305-.268.553-.6.553zm-54.123 0H1.132c-.331 0-.6-.248-.6-.553 0-.306.269-.553.6-.553h22.732c.332 0 .6.247.6.553 0 .305-.268.553-.6.553z"/><path d="M23.864 52.734c-.331 0-.6-.248-.6-.553V29.294c0-.306.269-.553.6-.553.332 0 .6.247.6.553v22.887c0 .305-.268.553-.6.553zm0-27.313c-.331 0-.6-.247-.6-.553V.92c0-.305.269-.553.6-.553.332 0 .6.248.6.553v23.95c0 .305-.268.552-.6.552z"/><path d="M23.864 25.428h-4.803c-2.98 0-5.404-2.234-5.404-4.98 0-2.745 2.424-4.978 5.404-4.978s5.404 2.233 5.404 4.979v4.426c0 .305-.269.553-.6.553zm-4.803-8.852c-2.318 0-4.203 1.738-4.203 3.873 0 2.135 1.885 3.872 4.203 3.872h4.203V20.45c0-2.135-1.885-3.873-4.203-3.873zm14.41 8.852h-4.803c-.332 0-.6-.248-.6-.553v-4.426c0-2.746 2.424-4.98 5.403-4.98 2.98 0 5.404 2.234 5.404 4.98 0 2.745-2.424 4.979-5.404 4.979zm-4.203-1.107h4.203c2.318 0 4.203-1.737 4.203-3.872s-1.885-3.873-4.203-3.873c-2.317 0-4.203 1.738-4.203 3.873v3.872zm4.203 14.377c-2.98 0-5.404-2.234-5.404-4.98v-4.425c0-.305.27-.553.6-.553h4.804c2.98 0 5.404 2.233 5.404 4.979 0 2.745-2.424 4.979-5.404 4.979zm-4.203-8.852v3.873c0 2.135 1.886 3.872 4.203 3.872 2.318 0 4.203-1.737 4.203-3.872 0-2.136-1.885-3.873-4.203-3.873h-4.203zm-10.207 8.852c-2.98 0-5.404-2.234-5.404-4.98 0-2.745 2.424-4.978 5.404-4.978h4.803c.332 0 .6.248.6.553v4.426c0 2.745-2.423 4.979-5.403 4.979zm0-8.852c-2.318 0-4.203 1.737-4.203 3.873 0 2.135 1.885 3.872 4.203 3.872 2.318 0 4.203-1.737 4.203-3.872v-3.873h-4.203zm55.321 15.099c-.331 0-.6-.248-.6-.554v-12.17c0-.306.269-.554.6-.554.332 0 .6.248.6.554v12.17c0 .306-.268.554-.6.554z"/><path d="M77.987 25.421h-49.32c-.33 0-.6-.247-.6-.553 0-.305.27-.553.6-.553h49.32c.332 0 .6.248.6.553 0 .306-.268.553-.6.553zm-54.123 0H1.132c-.331 0-.6-.247-.6-.553 0-.305.269-.553.6-.553h22.732c.332 0 .6.248.6.553 0 .306-.268.553-.6.553zm4.804 27.313c-.332 0-.6-.248-.6-.553V29.294c0-.306.268-.553.6-.553.331 0 .6.247.6.553v22.887c0 .305-.269.553-.6.553z"/><path d="M28.668 25.421c-.332 0-.6-.247-.6-.553V.92c0-.305.268-.553.6-.553.331 0 .6.248.6.553v23.95c0 .305-.269.552-.6.552z"/></g></svg>