<svg baseProfile="basic" xmlns="http://www.w3.org/2000/svg" width="32" height="32"><path d="M22.72 15.712h-4.384c.064-.8.512-1.824 1.44-2.752.864-.896 2.016-1.44 2.944-1.44.288 0 .704.064.992.352.672.64.416 2.368-.992 3.84zm-16.352 0c-1.12-1.984-1.088-4.16.224-5.504.672-.672 1.6-1.024 2.656-1.024 1.568 0 3.264.8 4.608 2.144 1.344 1.312 2.048 2.944 2.112 4.384H16c.064-1.44.768-3.072 2.112-4.384 1.344-1.344 3.04-2.144 4.608-2.144 1.056 0 1.984.352 2.656 1.024 1.312 1.344 1.344 3.52.224 5.504h6.368v-5.088A6.596 6.596 0 0025.344 4H6.624A6.596 6.596 0 000 10.624v5.088h6.368zm17.44 2.176a9.134 9.134 0 01-1.696 1.12l3.904 4.416h-2.432l-.832 1.472-5.024-5.792c-.256-.16-.512-.32-.704-.544-.224-.192-.384-.448-.544-.672h-.992c-.16.224-.32.48-.544.672-.192.224-.448.384-.704.544l-5.024 5.792-.832-1.472H5.952l3.904-4.416a9.134 9.134 0 01-1.696-1.12H0v1.888A6.596 6.596 0 006.624 26.4h18.72c3.68 0 6.656-2.944 6.656-6.624v-1.888h-8.192zM9.248 11.52c-.288 0-.704.064-.992.352-.672.672-.416 2.368.992 3.84h4.384c-.064-.8-.512-1.824-1.408-2.752-.896-.896-2.048-1.44-2.976-1.44z" fill="#007fff"/></svg>