<svg xmlns="http://www.w3.org/2000/svg" width="41" height="37"><g fill="#8E8E8E" stroke="#8E8E8E" stroke-width=".25"><path d="M9.898 1.2h-5.13c-1.932 0-3.513 2.665-3.258 5.76.69 8.478 1.02 14.61.745 16.583-.19 1.416-.322 3.097-.73 8.891-.131 1.84.8 3.389 1.884 3.389 1.004 0 1.904-1.341 1.904-3.05v-5.591c0-1.15.655-2.135 1.573-2.135H9.9a2.306 2.306 0 002.263-1.865H7.408a.441.441 0 01-.441-.44V3.51a.44.44 0 01.44-.441h4.755A2.306 2.306 0 009.898 1.2zm2.75 2.751h-4.8v18.35h4.8a.44.44 0 01.44.44 3.187 3.187 0 01-3.187 3.188H6.886c-.337 0-.691.532-.691 1.253v5.59c0 2.14-1.204 3.933-2.786 3.933-1.697 0-2.927-2.045-2.763-4.333.41-5.824.541-7.502.723-8.858.274-1.968-.057-8.117-.738-16.483C.338 3.487 2.218.318 4.768.318h5.13a3.187 3.187 0 013.187 3.125.442.442 0 01-.437.508z"/><path d="M7.407 3.951a.441.441 0 110-.882h7.304a.441.441 0 110 .882H7.407zm0 3.205a.441.441 0 010-.883h7.304a.441.441 0 110 .883H7.407zm0 3.205a.441.441 0 010-.882h7.304a.441.441 0 110 .882H7.407zm0 3.207a.441.441 0 110-.883h7.304a.441.441 0 010 .883H7.407zm0 3.204a.441.441 0 010-.882h7.304a.441.441 0 010 .882H7.407zm0 3.205a.441.441 0 010-.882h7.304a.441.441 0 010 .882H7.407zm0 3.205a.441.441 0 010-.882h7.304a.441.441 0 010 .882H7.407zm20.97.644a.441.441 0 11-.758.452L19.094 9.969a.441.441 0 01.758-.451l8.525 14.308zm5.557 9.328a.441.441 0 11-.758.451l-3.344-5.613a.441.441 0 11.758-.452l3.344 5.614z"/><path d="M36.478 30.749a2.551 2.551 0 10.136 5.1 2.551 2.551 0 00-.136-5.1zm.157 5.982a3.433 3.433 0 11-.178-6.865 3.433 3.433 0 01.178 6.865zm1.46-27.756a.441.441 0 01.77.432l-8.318 14.828a.441.441 0 01-.77-.431l8.318-14.829zM27.661 27.583a.441.441 0 11.77.431l-3.024 5.39a.441.441 0 11-.77-.432l3.024-5.39z"/><path d="M25.465 33.191a3.433 3.433 0 11-6.866-.002 3.433 3.433 0 016.866.002zm-.882 0a2.551 2.551 0 10-5.102-.002 2.551 2.551 0 005.102.002zm7.128-7.281c0-3.475-5.21-3.475-5.21 0 0 3.472 5.21 3.472 5.21 0zm-.882 0c0-2.298-3.446-2.298-3.446 0 0 2.296 3.446 2.296 3.446 0z"/></g></svg>