<svg xmlns="http://www.w3.org/2000/svg" xmlns:xlink="http://www.w3.org/1999/xlink" width="78" height="67"><defs><path id="a" d="M0 0h48.586v36.129H0z"/></defs><g fill="none" fill-rule="evenodd"><g transform="rotate(90 19.182 38.065)"><mask id="b" fill="#fff"><use xlink:href="#a"/></mask><path fill="#FFF" fill-rule="nonzero" d="M44.526 34.917H1.395a2.738 2.738 0 01-2.728-2.743V3.863A2.738 2.738 0 011.395 1.12h43.13a2.738 2.738 0 012.728 2.743v28.31a2.738 2.738 0 01-2.727 2.744zM1.395 1.94A1.918 1.918 0 00-.516 3.862v28.31c0 1.06.857 1.922 1.91 1.922h43.132c1.053 0 1.91-.862 1.91-1.921V3.863c0-1.06-.857-1.922-1.91-1.922H1.395z" mask="url(#b)"/><path fill="#FFF" fill-rule="nonzero" d="M46.845 8.065H-.925a.41.41 0 01-.408-.41.41.41 0 01.409-.411h47.769a.41.41 0 01.408.41.41.41 0 01-.408.411zm0 4.862H-.925a.41.41 0 01-.408-.411.41.41 0 01.409-.41h47.769a.41.41 0 01.408.41.41.41 0 01-.408.41z" mask="url(#b)"/><g fill="#FFF" fill-rule="nonzero" mask="url(#b)"><path d="M40.292 31.348c-1.88 0-3.411-1.54-3.411-3.431 0-1.892 1.53-3.431 3.411-3.431s3.412 1.54 3.412 3.43c0 1.893-1.53 3.432-3.412 3.432zm0-6.04a2.605 2.605 0 00-2.594 2.609 2.605 2.605 0 002.594 2.61 2.606 2.606 0 002.595-2.61 2.605 2.605 0 00-2.595-2.61z"/><path d="M35.735 31.345c-1.879 0-3.407-1.537-3.407-3.426 0-1.892 1.528-3.432 3.407-3.432 1 0 1.944.437 2.591 1.197a.412.412 0 01-.045.58.407.407 0 01-.575-.046 2.582 2.582 0 00-1.97-.91 2.603 2.603 0 00-2.591 2.61 2.601 2.601 0 002.59 2.606c.761 0 1.48-.331 1.97-.91a.406.406 0 01.576-.044.412.412 0 01.045.579 3.395 3.395 0 01-2.59 1.196z"/></g><path fill="#FFF" fill-rule="nonzero" d="M27.415 31.348h-8.607a.41.41 0 01-.409-.411.41.41 0 01.409-.41h8.607a.41.41 0 01.408.41.41.41 0 01-.408.41zm-11.647 0H2.403a.41.41 0 01-.408-.411.41.41 0 01.408-.41h13.365a.41.41 0 01.409.41.41.41 0 01-.409.41zm-5.823-4.442H2.403a.41.41 0 01-.408-.41.41.41 0 01.408-.411h7.542a.41.41 0 01.409.41.41.41 0 01-.409.411z" mask="url(#b)"/></g><path stroke="#FFF" stroke-linecap="round" stroke-linejoin="round" d="M56.639 38.2h16.474c1.87 0 3.393-1.478 3.393-3.326V4.575c0-1.832-1.524-3.325-3.393-3.325H4.47c-1.87 0-3.378 1.493-3.378 3.325v30.3c0 1.847 1.508 3.325 3.378 3.325H21.8m-6.51-18.472h47.004"/></g></svg>