<svg xmlns="http://www.w3.org/2000/svg" viewBox="0 0 6.062 6.062"><path fill="#020400" d="M5.826 1.566L4.27 3.139c-.27.271-.716.271-1.072.029l-.031.031c.24.359.239.81-.03 1.082L1.581 5.853c-.313.317-.867.268-1.238-.107s-.419-.934-.106-1.25l1.556-1.572c.258-.26.68-.27 1.029-.055l.049-.049c-.213-.353-.204-.779.054-1.039L4.482.209c.312-.317.867-.268 1.238.107s.418.934.106 1.25zM2.023 3.371L.679 4.728a.482.482 0 000 .678.468.468 0 00.671 0l1.344-1.357a.474.474 0 00.112-.485l-.615.621-.336-.34.592-.598a.466.466 0 00-.424.124zM5.384.654a.474.474 0 00-.672 0l-1.345 1.36a.474.474 0 00-.122.428l.626-.633.336.34-.648.656c.164.053.35.02.481-.113l1.344-1.357a.487.487 0 000-.681z"/></svg>