<svg width="40" height="40" fill="none" xmlns="http://www.w3.org/2000/svg"><circle cx="20" cy="20" r="20" fill="#fff"/><path d="M7.235 17.45c0 2.556 2.576 2.902 2.576 4.742 0 .64-.264.87-.683.87-.42 0-.683-.23-.683-.87v-.639H7.2v.55c0 1.431.671 2.25 1.965 2.25s1.965-.819 1.965-2.25c0-2.557-2.576-2.902-2.576-4.743 0-.639.24-.882.659-.882.42 0 .659.243.659.882v.371h1.246v-.281c0-1.432-.66-2.25-1.941-2.25-1.282 0-1.94.818-1.94 2.25zm4.84 4.653c0 1.431.707 2.25 2 2.25.348 0 .66-.064.923-.167.18.384.551.614 1.138.614h.18v-1.253h-.12c-.215 0-.311-.025-.371-.192.168-.332.252-.754.252-1.252V17.45c0-1.432-.707-2.25-2.001-2.25s-2 .818-2 2.25v4.653zm1.318-4.743c0-.639.264-.882.683-.882.42 0 .683.243.683.882v4.832c0 .64-.264.882-.683.882-.42 0-.683-.243-.683-.882V17.36zm3.779-2.058v6.814c0 1.431.671 2.25 1.965 2.25s1.965-.819 1.965-2.25v-6.814h-1.246v6.903c0 .64-.264.87-.683.87-.42 0-.683-.23-.683-.87v-6.903h-1.317zm5.133 8.948h1.318v-8.948h-1.318v8.948zm6.678 0c-.132-.332-.144-.652-.144-1.086v-1.38c0-.934-.215-1.611-.874-1.905.587-.295.862-.895.862-1.816v-.703c0-1.38-.587-2.058-1.953-2.058h-1.988v8.948h1.318v-3.643h.455c.599 0 .862.307.862 1.138v1.406c0 .729.048.87.12 1.1h1.342zm-2.145-7.67c.468 0 .671.282.671.92v.883c0 .716-.3.946-.79.946h-.515V16.58h.634zm4.485 0H33.6v-1.278h-3.594v8.948H33.6v-1.278h-2.276v-2.62h1.809v-1.279h-1.809v-2.492z" fill="#161616"/></svg>