<svg width="120" height="120" fill="none" xmlns="http://www.w3.org/2000/svg"><circle cx="60" cy="60" r="60" fill="#1C1C1E"/><path d="M26.093 53.859c0 6.658 6.634 7.556 6.634 12.35 0 1.665-.679 2.264-1.759 2.264-1.08 0-1.759-.6-1.759-2.264v-1.664H26v1.431c0 3.728 1.728 5.859 5.06 5.859 3.333 0 5.061-2.13 5.061-5.859 0-6.658-6.634-7.557-6.634-12.35 0-1.665.617-2.297 1.697-2.297s1.697.632 1.697 2.297v.965h3.21v-.732c0-3.729-1.698-5.859-5-5.859-3.301 0-4.998 2.13-4.998 5.859zM38.56 65.976c0 3.728 1.82 5.859 5.153 5.859.895 0 1.697-.167 2.376-.433.462.999 1.419 1.598 2.931 1.598h.463v-3.262h-.309c-.555 0-.802-.067-.956-.5.432-.865.648-1.964.648-3.262V53.859c0-3.729-1.82-5.859-5.153-5.859-3.333 0-5.154 2.13-5.154 5.859v12.117zm3.394-12.35c0-1.665.679-2.297 1.759-2.297 1.08 0 1.758.632 1.758 2.297v12.583c0 1.665-.678 2.297-1.758 2.297s-1.76-.632-1.76-2.297V53.626zm9.735-5.36V66.01c0 3.729 1.728 5.86 5.06 5.86 3.333 0 5.06-2.131 5.06-5.86V48.266h-3.208v17.976c0 1.665-.68 2.264-1.76 2.264s-1.758-.6-1.758-2.264V48.266h-3.394zm13.22 23.303h3.394V48.266H64.91V71.57zm17.201 0c-.34-.866-.37-1.698-.37-2.83v-3.595c0-2.43-.556-4.195-2.253-4.96 1.512-.766 2.221-2.33 2.221-4.727v-1.831c0-3.595-1.512-5.36-5.03-5.36h-5.122V71.57h3.395v-9.49h1.172c1.543 0 2.222.8 2.222 2.963v3.662c0 1.897.123 2.263.308 2.863h3.456zm-5.524-19.974c1.204 0 1.728.733 1.728 2.397v2.297c0 1.864-.771 2.463-2.036 2.463H74.95v-7.157h1.635zm11.551 0H94v-3.329h-9.257V71.57H94v-3.33h-5.863v-6.824h4.66v-3.328h-4.66v-6.492z" fill="#fff"/></svg>