<svg width="36" height="36" fill="none" xmlns="http://www.w3.org/2000/svg"><path d="M16.857 24.857h7.429a.571.571 0 00.571-.571V11.714a.571.571 0 00-.571-.571h-7.429a.571.571 0 110-1.143h7.429c.946 0 1.714.768 1.714 1.714v12.572c0 .946-.768 1.714-1.714 1.714h-7.429a.571.571 0 110-1.143z" fill="#8E8E93"/><path d="M10.166 17.594l4-4a.57.57 0 01.805.806l-3.023 3.028h9.48a.571.571 0 110 1.143h-9.485l3.023 3.023a.573.573 0 01-.394 1.005.573.573 0 01-.412-.2l-4-4a.572.572 0 01.006-.805z" fill="#8E8E93"/></svg>