<svg baseProfile="basic" xmlns="http://www.w3.org/2000/svg" width="32" height="32"><path d="M6.08 25.296h20.096v-1.664H6.08v1.664zM29.184 6c-1.472 0-2.72 1.152-2.72 2.688 0 .8.384 1.568.864 2.048l-6.496 5.44-3.296-5.152c.864-.48 1.344-1.344 1.344-2.336C18.88 7.152 17.728 6 16.192 6c-1.568 0-2.72 1.152-2.72 2.688 0 .992.48 1.856 1.344 2.336l-3.392 5.152-6.688-5.632c.384-.48.672-1.152.672-1.856C5.408 7.152 4.256 6 2.688 6 1.152 6 0 7.152 0 8.688c0 1.568 1.152 2.72 2.688 2.72.384 0 .704-.096.992-.192l2.4 10.88h20.096l2.4-10.688h.608c1.536 0 2.816-1.152 2.816-2.72C32 7.152 30.72 6 29.184 6zM8.32 21.392c-.672 0-1.248-.48-1.248-1.248 0-.672.576-1.152 1.248-1.152s1.28.48 1.28 1.152c0 .768-.608 1.248-1.28 1.248zm5.152 0c-.704 0-1.28-.48-1.28-1.248 0-.672.576-1.152 1.28-1.152.672 0 1.248.48 1.248 1.152 0 .768-.576 1.248-1.248 1.248zm5.12 0c-.672 0-1.248-.48-1.248-1.248 0-.672.576-1.152 1.248-1.152.704 0 1.28.48 1.28 1.152 0 .768-.576 1.248-1.28 1.248zm5.152 0c-.672 0-1.248-.48-1.248-1.248 0-.672.576-1.152 1.248-1.152s1.248.48 1.248 1.152c0 .768-.576 1.248-1.248 1.248z" fill="#e84b88"/></svg>