<svg width="24" height="24" fill="none" xmlns="http://www.w3.org/2000/svg"><path d="M21.05 7.02a2.307 2.307 0 00-2.238-1.745h-2.247v-1.29h3.248a.658.658 0 00.658-.658V1.26a.658.658 0 00-.658-.66H12a.658.658 0 00-.658.659v2.067c0 .364.294.659.658.659h3.247v1.29H5.188c-1.052 0-1.97.71-2.234 1.727l-.005.018-2.246 9.744c.063-.006.125-.01.189-.01h22.216c.064 0 .126.004.189.01L21.05 7.02zm-2.037 3.045a.658.658 0 01-.658.659H5.645a.658.658 0 01-.658-.659V8.531c0-.364.294-.659.658-.659h12.71c.364 0 .658.295.658.659v1.534zm4.095 8.007H.892c-.492 0-.892.4-.892.892v3.543c0 .492.4.892.892.892h22.216c.492 0 .892-.4.892-.892v-3.543c0-.492-.4-.892-.892-.892zm-9.099 2.771c0 .67-.545 1.215-1.215 1.215h-1.492c-.67 0-1.216-.545-1.216-1.215v-.215c0-.67.546-1.215 1.216-1.215h1.492c.67 0 1.215.545 1.215 1.215v.215z" fill="#161616"/></svg>