<svg xmlns="http://www.w3.org/2000/svg" width="40" height="40"><path d="M4.42 17.895h9.578A3.885 3.885 0 0017.892 14l.002-9.58A3.885 3.885 0 0014 .525H4.42A3.885 3.885 0 00.526 4.42V14a3.887 3.887 0 003.894 3.896zM2.631 4.42c0-1 .79-1.789 1.789-1.789h9.578c1 0 1.79.79 1.79 1.789v9.578c0 1-.79 1.79-1.79 1.79l-9.578.001c-1 0-1.789-.79-1.789-1.789V4.42zM35.58.526H26a3.885 3.885 0 00-3.894 3.894V14a3.885 3.885 0 003.893 3.894h9.579A3.885 3.885 0 0039.472 14l.002-9.579A3.886 3.886 0 0035.58.526zm1.789 13.475c0 1-.79 1.789-1.789 1.789H26c-1 0-1.79-.79-1.79-1.789v-9.58c0-1 .79-1.79 1.79-1.79h9.578c1 0 1.789.79 1.789 1.79l.002 9.58zM4.42 39.474h9.578a3.885 3.885 0 003.894-3.894l.002-9.58A3.885 3.885 0 0014 22.104H4.42A3.885 3.885 0 00.526 26v9.579a3.887 3.887 0 003.894 3.896zM2.631 25.999c0-1 .79-1.789 1.789-1.789h9.578c1 0 1.79.79 1.79 1.789v9.578c0 1-.79 1.789-1.79 1.789l-9.578.002c-1 0-1.789-.79-1.789-1.789V26zm28.159-3.894c-4.79 0-8.685 3.894-8.685 8.684 0 4.79 3.894 8.685 8.684 8.685 4.79 0 8.685-3.894 8.685-8.685 0-4.79-3.894-8.684-8.685-8.684zm0 15.263a6.582 6.582 0 01-6.58-6.579 6.582 6.582 0 016.58-6.578 6.582 6.582 0 016.578 6.578 6.582 6.582 0 01-6.579 6.58z" fill="#8E8E8E" fill-rule="evenodd" stroke="#FFF"/></svg>