<svg xmlns="http://www.w3.org/2000/svg" width="512" height="512" viewBox="0 0 147.919 147.919"><path d="M92.779 129.86a55.478 55.478 0 01-20.807 4.038c-14.974 0-28.517-5.924-38.572-15.492l4.604-2.73c3.234-1.913 3.204-4.962-.066-6.807L15.48 96.183c-3.27-1.848-5.982-.267-6.059 3.532l-.534 26.412c-.074 3.802 2.481 5.332 5.711 3.415l6.369-3.768c12.777 13.596 30.865 22.145 51 22.145a69.082 69.082 0 0020.961-3.254c14.086-3.755 7.078-17.771-.149-14.805zM16.408 70.271c3.066-22.703 19.748-41.049 41.547-46.672V9.154C30.509 14.725 8.914 36.336 3.327 63.775c-4.946 17.563 12.576 14.058 13.081 6.496zm47.736-34.564L86.96 22.045c3.316-1.988 3.323-5.226.014-7.228L63.95.883c-3.311-1.999-5.985-.49-5.966 3.381l.121 28.034c.016 3.87 2.721 5.397 6.039 3.409zm78.934 67.245l-11.95-7.074 7.265 4.196c2.345-6.995 3.665-14.459 3.665-22.248 0-21.245-9.465-40.278-24.403-53.129-7.135-6.437-17.647.572-10.916 9.154C119.711 44.122 128.041 60 128.041 77.83c0 5.198-.767 10.212-2.088 14.985l-6.167-3.648c-3.213-1.902-5.77-.335-5.715 3.498l.407 26.34c.059 3.84 2.738 5.448 5.982 3.598l22.562-12.857c3.245-1.849 3.269-4.892.056-6.794z" fill="#91DC5A"/></svg>