<svg width="9" height="11" viewBox="0 0 9 11" fill="none" xmlns="http://www.w3.org/2000/svg">
<path d="M0.107752 4.1198L3.22601 1.00155C3.27473 0.955218 3.33585 0.924021 3.40194 0.911735C3.46804 0.899449 3.53628 0.906603 3.5984 0.932329C3.66051 0.958055 3.71383 1.00125 3.75188 1.05667C3.78994 1.11209 3.8111 1.17737 3.81279 1.24458V2.69359C7.60092 3.33145 9.59549 6.22795 8.14995 9.88181C8.11989 9.95196 8.06748 10.0102 8.00089 10.0475C7.93429 10.0848 7.85724 10.099 7.78172 10.0879C7.70621 10.0769 7.63646 10.0412 7.58333 9.98641C7.5302 9.93161 7.49667 9.8608 7.48796 9.78498C7.35892 8.29265 5.45698 5.91195 3.81279 6.02418V7.48092C3.81104 7.5481 3.78984 7.61334 3.75178 7.66872C3.71371 7.72411 3.66041 7.76727 3.59832 7.79298C3.53623 7.8187 3.46802 7.82587 3.40194 7.81362C3.33586 7.80136 3.27475 7.77022 3.22601 7.72395L0.107752 4.60587C0.0433083 4.5414 0.00710583 4.45399 0.00710583 4.36284C0.00710583 4.27169 0.0433083 4.18427 0.107752 4.1198Z" fill="currentColor"/>
</svg>
