<svg width="14" height="14" viewBox="0 0 14 14" fill="none" xmlns="http://www.w3.org/2000/svg">
<path d="M8.70203 7.01857L12.9478 11.2644C13.4195 11.7361 13.4195 12.5009 12.9478 12.9726C12.4761 13.4443 11.7113 13.4443 11.2396 12.9726L6.99381 8.72679L2.5809 13.1397C2.10577 13.6148 1.33543 13.6148 0.860301 13.1397C0.38517 12.6646 0.38517 11.8942 0.8603 11.4191L5.27321 7.00619L1.05217 2.78515C0.580453 2.31343 0.580454 1.54864 1.05217 1.07692C1.52388 0.60521 2.28868 0.60521 2.76039 1.07692L6.98143 5.29797L11.4191 0.8603C11.8942 0.385169 12.6646 0.38517 13.1397 0.860301C13.6148 1.33543 13.6148 2.10577 13.1397 2.5809L8.70203 7.01857Z" fill="currentColor" />
</svg>
