<?xml version="1.0" encoding="utf-8"?>
<!-- Generator: Adobe Illustrator 19.0.0, SVG Export Plug-In . SVG Version: 6.00 Build 0)  -->
<svg version="1.1" id="Layer_1" xmlns="http://www.w3.org/2000/svg" xmlns:xlink="http://www.w3.org/1999/xlink" x="0px" y="0px"
	 viewBox="0 0 30 30" style="enable-background:new 0 0 30 30;" xml:space="preserve">
<style type="text/css">
	.st0{fill:#E2E2E2;}
</style>
<g id="XMLID_8_">
	<path id="XMLID_11_" class="st0" d="M15,5C9.5,5,5,9.5,5,15c0,5.5,4.5,10,10,10c5.5,0,10-4.5,10-10C25,9.5,20.5,5,15,5z M15,23
		c-4.4,0-8-3.6-8-8c0-4.4,3.6-8,8-8c4.4,0,8,3.6,8,8C23,19.4,19.4,23,15,23z"/>
	<path id="XMLID_13_" class="st0" d="M18,14h-2v-2c0-0.6-0.4-1-1-1s-1,0.4-1,1v2h-2c-0.6,0-1,0.4-1,1s0.4,1,1,1h2v2c0,0.6,0.4,1,1,1
		s1-0.4,1-1v-2h2c0.6,0,1-0.4,1-1S18.5,14,18,14z"/>
</g>
</svg>
