<svg width="11" height="18" viewBox="0 0 11 18" xmlns="http://www.w3.org/2000/svg">
<path fill-rule="evenodd" clip-rule="evenodd" d="M9.53639 5.72375C9.28817 5.72375 9.03995 5.66236 8.85378 5.47822L5.44075 2.10228L2.02772 5.47822C1.65539 5.8465 1.09689 5.8465 0.724561 5.47822C0.35223 5.10993 0.35223 4.55752 0.724561 4.18924L4.63404 0.322248C5.06843 -0.107416 5.81308 -0.107416 6.30952 0.322248L10.219 4.18924C10.5913 4.55752 10.5913 5.10993 10.219 5.47822C9.97078 5.66236 9.72256 5.72375 9.53639 5.72375ZM5.44098 10.266C6.1607 10.266 6.74414 9.68885 6.74414 8.97696C6.74414 8.26507 6.1607 7.68796 5.44098 7.68796C4.72127 7.68796 4.13782 8.26507 4.13782 8.97696C4.13782 9.68885 4.72127 10.266 5.44098 10.266ZM4.63404 17.693C4.82021 17.8771 5.13048 17.9999 5.44075 17.9999C5.75103 17.9999 6.0613 17.8771 6.24746 17.693L10.1569 13.826C10.5293 13.4577 10.5293 12.9052 10.1569 12.537C9.78461 12.1687 9.22611 12.1687 8.85378 12.537L5.44075 15.9129L2.02772 12.537C1.65539 12.1687 1.09689 12.1687 0.72456 12.537C0.35223 12.9052 0.35223 13.4577 0.72456 13.826L4.63404 17.693Z" />
</svg>
