<svg width="36" height="36" viewBox="0 0 36 36" xmlns="http://www.w3.org/2000/svg">
<path fill-rule="evenodd" clip-rule="evenodd" d="M23.1139 9.27368C20.8529 9.27368 18.9999 11.248 19.03 13.6164C19.0502 16.0833 20.7996 18.033 23.1139 18.033C25.4175 18.033 27.1978 16.0839 27.1978 13.6054C27.1978 11.2296 25.3759 9.27368 23.1139 9.27368ZM20.0209 13.6137C20.002 11.7524 21.4175 10.2407 23.1139 10.2407C24.8003 10.2407 26.207 11.7333 26.207 13.6055C26.207 15.5865 24.8364 17.0661 23.1139 17.0661C21.3912 17.0661 20.0209 15.5862 20.0209 13.6151L20.0209 13.6137ZM11.8498 10.558C9.87171 10.558 8.25407 12.2934 8.27428 14.3639C8.29443 16.5431 9.82863 18.2439 11.8498 18.2439C13.8796 18.2439 15.435 16.544 15.435 14.353C15.435 12.2739 13.8278 10.558 11.8498 10.558ZM9.24559 14.3626C9.24559 12.7949 10.4196 11.5058 11.8497 11.5058C13.2816 11.5058 14.4734 12.7872 14.4734 14.353C14.4734 16.0366 13.3085 17.2865 11.8497 17.2865C10.4014 17.2865 9.24559 16.0373 9.24559 14.3626ZM11.8302 19.213C7.43945 19.213 4.5 22.3261 4.5 25.2604C4.5 25.7353 4.63212 26.111 4.9206 26.3648C5.20567 26.6156 5.62002 26.7264 6.13946 26.7264H14.6951L14.7578 26.4747C14.5513 26.365 14.3459 26.1354 14.2876 25.8822L14.2637 25.7785H6.09057C5.82501 25.7785 5.67935 25.7329 5.59766 25.6602C5.52024 25.5913 5.47133 25.4712 5.47133 25.2413C5.47133 22.5323 8.34581 20.1609 11.8302 20.1609C13.5063 20.1609 15.0006 20.6423 16.1268 21.5498L16.2222 21.6267L16.3071 21.5383C16.4579 21.3812 16.6289 21.2321 16.8212 21.0813L16.9544 20.9768L16.8218 20.8714C15.4564 19.787 13.7251 19.213 11.8302 19.213ZM23.0943 19.2514C20.5112 19.2514 18.4132 20.1296 16.9592 21.327C15.5096 22.5209 14.6885 24.0434 14.6885 25.3371C14.6885 25.8002 14.8403 26.1597 15.1694 26.3968C15.4893 26.6273 15.956 26.7264 16.5529 26.7264H29.6259C30.2274 26.7264 30.6966 26.6274 31.0177 26.397C31.3482 26.1599 31.5 25.8002 31.5 25.3371C31.5 24.0433 30.6764 22.5208 29.2256 21.327C27.7705 20.1296 25.6725 19.2514 23.0943 19.2514ZM15.6795 25.2892C15.6795 24.2741 16.3484 23.0054 17.6216 21.9849C18.8904 20.9681 20.7478 20.2088 23.0943 20.2088C25.4359 20.2088 27.2909 20.9681 28.5584 21.9849C29.8305 23.0053 30.4994 24.2741 30.4994 25.2892C30.4994 25.4943 30.4513 25.5937 30.3628 25.6548C30.2589 25.7265 30.0691 25.7689 29.7237 25.7689H16.4552C16.1098 25.7689 15.92 25.7265 15.8161 25.6548C15.7276 25.5937 15.6795 25.4943 15.6795 25.2892Z" />
</svg>
