<?xml version="1.0" encoding="utf-8"?>
<!-- Generator: Adobe Illustrator 19.0.0, SVG Export Plug-In . SVG Version: 6.00 Build 0)  -->
<svg version="1.1" id="Layer_1" xmlns="http://www.w3.org/2000/svg" xmlns:xlink="http://www.w3.org/1999/xlink" x="0px" y="0px"
	 viewBox="0 0 30 30" style="enable-background:new 0 0 30 30;" xml:space="preserve">
<style type="text/css">
	.st0{fill:#E2E2E2;}
</style>
<g id="XMLID_8_">
	<path id="XMLID_11_" class="st0" d="m15,5c-5.5,0 -10,4.5 -10,10c0,5.5 4.5,10 10,10c5.5,0 10,-4.5 10,-10c0,-5.5 -4.5,-10 -10,-10zm0,18c-4.4,0 -8,-3.6 -8,-8c0,-4.4 3.6,-8 8,-8c4.4,0 8,3.6 8,8c0,4.4 -3.6,8 -8,8z"/>
   <path id="XMLID_13_" class="st0" d="m18,14l-2,0l0,-2c0,-0.6 -0.4,-1 -1,-1s-1,0.4 -1,1l0,2l-2,0c-0.6,0 -1,0.4 -1,1s0.4,1 1,1l2,0l0,2c0,0.6 0.4,1 1,1s1,-0.4 1,-1l0,-2l2,0c0.6,0 1,-0.4 1,-1s-0.5,-1 -1,-1z" transform="rotate(45 15,15) "/>
</g>
</svg>
