<svg width="14" height="14" viewBox="0 0 14 14" fill="none" xmlns="http://www.w3.org/2000/svg">
<path d="M6.28398 12.6507V11.284C5.8951 11.284 5.56732 11.1395 5.30065 10.8506C5.03398 10.5618 4.90065 10.2229 4.90065 9.83398V9.10065L1.48398 5.68398C1.42843 5.90621 1.38954 6.12565 1.36732 6.34232C1.3451 6.55898 1.33398 6.77843 1.33398 7.00065C1.33398 8.4451 1.80343 9.70621 2.74232 10.784C3.68121 11.8618 4.86176 12.484 6.28398 12.6507ZM11.184 10.8506C11.6729 10.3173 12.0423 9.72009 12.2923 9.05898C12.5423 8.39787 12.6673 7.71176 12.6673 7.00065C12.6673 5.82287 12.3451 4.75343 11.7007 3.79232C11.0562 2.83121 10.1951 2.12843 9.11732 1.68398V1.98398C9.11732 2.37287 8.98398 2.71176 8.71732 3.00065C8.45065 3.28954 8.12287 3.43398 7.73398 3.43398H6.28398V4.88398C6.28398 5.07287 6.20898 5.22843 6.05898 5.35065C5.90898 5.47287 5.73954 5.53398 5.55065 5.53398H4.16732V7.00065H8.46732C8.65621 7.00065 8.81176 7.07287 8.93398 7.21732C9.05621 7.36176 9.11732 7.52843 9.11732 7.71732V9.83398H9.83398C10.1562 9.83398 10.4395 9.92843 10.684 10.1173C10.9284 10.3062 11.0951 10.5507 11.184 10.8506ZM7.00065 13.6673C6.07843 13.6673 5.21176 13.4923 4.40065 13.1423C3.58954 12.7923 2.88398 12.3173 2.28398 11.7173C1.68398 11.1173 1.20898 10.4118 0.858984 9.60065C0.508984 8.78954 0.333984 7.92287 0.333984 7.00065C0.333984 6.07843 0.508984 5.21176 0.858984 4.40065C1.20898 3.58954 1.68398 2.88398 2.28398 2.28398C2.88398 1.68398 3.58954 1.20898 4.40065 0.858984C5.21176 0.508984 6.07843 0.333984 7.00065 0.333984C7.92287 0.333984 8.78954 0.508984 9.60065 0.858984C10.4118 1.20898 11.1173 1.68398 11.7173 2.28398C12.3173 2.88398 12.7923 3.58954 13.1423 4.40065C13.4923 5.21176 13.6673 6.07843 13.6673 7.00065C13.6673 7.92287 13.4923 8.78954 13.1423 9.60065C12.7923 10.4118 12.3173 11.1173 11.7173 11.7173C11.1173 12.3173 10.4118 12.7923 9.60065 13.1423C8.78954 13.4923 7.92287 13.6673 7.00065 13.6673Z" fill="currentColor"/>
</svg>
